<?xml version="1.0" encoding="UTF-8" standalone="no" ?>
<!DOCTYPE svg PUBLIC "-//W3C//DTD SVG 1.1//EN" "http://www.w3.org/Graphics/SVG/1.1/DTD/svg11.dtd">
<svg xmlns="http://www.w3.org/2000/svg" xmlns:xlink="http://www.w3.org/1999/xlink" version="1.1" width="1080" height="1080" viewBox="0 0 1080 1080" xml:space="preserve">
<desc>Created with Fabric.js 5.2.4</desc>
<defs>
</defs>
<g transform="matrix(1 0 0 1 540 540)" id="1bcc649a-32df-4ba5-a916-e9a620725c9a"  >
<rect style="stroke: none; stroke-width: 1; stroke-dasharray: none; stroke-linecap: butt; stroke-dashoffset: 0; stroke-linejoin: miter; stroke-miterlimit: 4; fill: rgb(255,255,255); fill-rule: nonzero; opacity: 1;" vector-effect="non-scaling-stroke"  x="-540" y="-540" rx="0" ry="0" width="1080" height="1080" />
</g>
<g transform="matrix(1 0 0 1 540 540)" id="def65fe7-624c-437e-a51d-b81eb47ea5fa"  >
</g>
<g transform="matrix(1.04 0 0 1 459.33 537.15)"  >
<path style="stroke: none; stroke-width: 1; stroke-dasharray: none; stroke-linecap: butt; stroke-dashoffset: 0; stroke-linejoin: miter; stroke-miterlimit: 4; fill: rgb(50,71,213); fill-rule: nonzero; opacity: 1;" vector-effect="non-scaling-stroke"  transform=" translate(-10.87, -19.15)" d="M 4.97484 14.585 C 4.88121 14.6338 4.74688 14.7397 4.67767 14.8211 C 4.4375 15.1142 4.4375 16.268 4.4375 19.2071 L 4.4375 21.8856 L 5.21094 21.8856 L 5.98438 21.8856 L 5.98438 19.4635 L 5.98438 15.8835 L 10.9507 15.8835 L 15.9169 15.8835 L 15.9169 20.4201 L 15.9169 23.7988 L 16.609 23.7988 L 17.301 23.7988 L 17.301 20.0741 C 17.301 15.9952 17.3132 15.0327 17.0649 14.7722 C 17.0038 14.7071 16.8858 14.6216 16.8044 14.5768 C 16.6578 14.5036 16.4828 14.4995 10.9018 14.4995 L 5.14988 14.4995 L 4.97484 14.585 Z" stroke-linecap="round" />
</g>
<g transform="matrix(1.04 0 0 1 457.8 547.65)"  >
<path style="stroke: none; stroke-width: 1; stroke-dasharray: none; stroke-linecap: butt; stroke-dashoffset: 0; stroke-linejoin: miter; stroke-miterlimit: 4; fill: rgb(50,71,213); fill-rule: nonzero; opacity: 1;" vector-effect="non-scaling-stroke"  transform=" translate(-9.41, -29.64)" d="M 1.91324 22.8061 C 1.39626 22.8875 1.04211 23.1684 0.895559 23.608 C 0.834498 23.8075 0.838569 24.1738 0.911842 24.5809 C 0.960691 24.874 0.960691 24.8984 0.895559 24.8984 C 0.858923 24.8984 0.73273 24.9269 0.61875 24.9595 C 0.240173 25.0735 0 25.4032 0 25.8103 C 0 26.0179 1.43289 35.409 1.50617 35.6899 C 1.58758 35.9871 1.91324 36.329 2.22669 36.443 C 2.35288 36.4878 3.78577 36.4959 10.2786 36.5 L 18.1758 36.5 L 18.359 36.4023 C 18.5829 36.2883 18.7905 35.9952 18.8271 35.751 C 18.8678 35.4823 17.4105 25.6352 17.2965 25.3951 C 17.1988 25.1997 17.0116 25.0368 16.7836 24.9554 C 16.6574 24.9106 15.9043 24.9025 12.9042 24.8984 L 9.17948 24.8944 L 8.67064 24.2797 C 7.67332 23.0747 7.46164 22.8997 6.91616 22.8224 C 6.67192 22.7857 2.13713 22.7735 1.91324 22.8061 Z" stroke-linecap="round" />
</g>
<g transform="matrix(1.04 0 0 1 468.24 546.19)"  >
<path style="stroke: none; stroke-width: 1; stroke-dasharray: none; stroke-linecap: butt; stroke-dashoffset: 0; stroke-linejoin: miter; stroke-miterlimit: 4; fill: rgb(50,71,213); fill-rule: nonzero; opacity: 1;" vector-effect="non-scaling-stroke"  transform=" translate(-19.42, -28.18)" d="M 18.1727 23.605 C 18.189 23.6782 18.2704 24.4354 18.36 25.2862 C 18.5065 26.6458 19.3166 32.4262 19.4102 32.7763 L 19.4468 32.8984 L 19.4713 32.7763 C 19.5486 32.4181 20.6803 24.5616 20.6803 24.3825 C 20.6803 24.0283 20.5052 23.7393 20.1999 23.5887 C 20.0208 23.4991 19.9516 23.4951 19.0805 23.4829 L 18.1523 23.4666 L 18.1727 23.605 Z" stroke-linecap="round" />
</g>
<g transform="matrix(1.04 0 0 1 457.23 537.6)"  >
<path style="stroke: none; stroke-width: 1; stroke-dasharray: none; stroke-linecap: butt; stroke-dashoffset: 0; stroke-linejoin: miter; stroke-miterlimit: 4; fill: rgb(50,71,213); fill-rule: nonzero; opacity: 1;" vector-effect="non-scaling-stroke"  transform=" translate(-8.86, -19.6)" d="M 7.33656 16.863 L 7.28906 16.9118 L 7.28906 18.3749 L 7.28906 19.838 L 7.31756 19.8746 C 7.38 19.9547 7.32164 19.9506 8.56484 19.9506 L 9.70489 19.9506 L 9.70489 20.0416 C 9.70489 20.0931 9.69539 20.1895 9.68453 20.256 C 9.62346 20.6387 9.46331 20.9563 9.20408 21.2142 C 8.93807 21.4788 8.6422 21.6254 8.29882 21.6607 C 8.06674 21.6851 8.0681 21.6851 8.02331 21.7367 L 7.98124 21.7842 L 7.98124 22.0258 C 7.98124 22.2511 7.9826 22.2701 8.00974 22.304 C 8.06538 22.3746 8.1061 22.3855 8.28661 22.376 C 9.07922 22.3339 9.76054 21.9186 10.1216 21.2576 C 10.2437 21.0323 10.3401 20.7337 10.393 20.4121 C 10.4134 20.2845 10.4161 20.1026 10.4201 18.6151 C 10.4242 17.3692 10.4215 16.9498 10.4093 16.9213 C 10.4011 16.8996 10.3754 16.8671 10.3536 16.8494 L 10.3129 16.8155 L 8.84985 16.8155 L 7.38542 16.8155 L 7.33656 16.863 Z" stroke-linecap="round" />
</g>
<g transform="matrix(1.04 0 0 1 461.21 537.6)"  >
<path style="stroke: none; stroke-width: 1; stroke-dasharray: none; stroke-linecap: butt; stroke-dashoffset: 0; stroke-linejoin: miter; stroke-miterlimit: 4; fill: rgb(50,71,213); fill-rule: nonzero; opacity: 1;" vector-effect="non-scaling-stroke"  transform=" translate(-12.67, -19.6)" d="M 11.1815 16.8449 C 11.1014 16.9087 11.1055 16.8218 11.1055 18.3799 C 11.1055 19.7385 11.1069 19.8118 11.1299 19.8552 C 11.1435 19.881 11.1761 19.9136 11.2019 19.9271 C 11.2453 19.9502 11.3091 19.9516 12.3935 19.9516 L 13.539 19.9516 L 13.5295 20.0805 C 13.4698 20.9274 12.8767 21.5883 12.1098 21.663 C 11.913 21.6833 11.8723 21.6942 11.8357 21.7471 C 11.8058 21.7879 11.8045 21.8014 11.8045 22.0281 C 11.8045 22.2954 11.8113 22.3172 11.9035 22.362 C 12.0013 22.4081 12.3813 22.366 12.6799 22.2764 C 13.2417 22.1082 13.7195 21.7119 13.976 21.2002 C 14.0981 20.9559 14.1796 20.679 14.2203 20.3682 C 14.2379 20.2325 14.2407 19.9611 14.2407 18.5604 L 14.2407 16.9128 L 14.1931 16.8639 L 14.1443 16.8164 L 12.6812 16.8164 L 11.2182 16.8164 L 11.1815 16.8449 Z" stroke-linecap="round" />
</g>
<g transform="matrix(1.04 0 0 1 482.88 543.3)"  >
<path style="stroke: none; stroke-width: 1; stroke-dasharray: none; stroke-linecap: butt; stroke-dashoffset: 0; stroke-linejoin: miter; stroke-miterlimit: 4; fill: rgb(50,71,213); fill-rule: nonzero; opacity: 1;" vector-effect="non-scaling-stroke"  transform=" translate(-33.48, -25.31)" d="M 27.0273 23.9784 C 27.0273 22.3021 27.2144 20.9721 27.5884 19.9885 C 27.9763 19.0048 28.6344 18.2983 29.5626 17.8688 C 30.5047 17.4393 31.8139 17.2246 33.4902 17.2246 C 34.7509 17.2246 35.7969 17.3424 36.6281 17.5779 C 37.4594 17.8134 38.1174 18.1944 38.6023 18.7208 C 39.0872 19.2473 39.4266 19.9469 39.6206 20.8197 C 39.8284 21.6786 39.9323 22.7315 39.9323 23.9784 C 39.9323 25.253 39.8284 26.3266 39.6206 27.1994 C 39.4128 28.0584 39.0664 28.7511 38.5815 29.2775 C 38.0966 29.804 37.4247 30.185 36.5658 30.4205 L 36.5658 30.5244 C 36.9814 30.9816 37.3555 31.4526 37.6879 31.9375 C 38.0343 32.4224 38.3322 32.8865 38.5815 33.3298 L 38.5815 33.3922 L 34.7994 33.3922 L 33.324 30.753 C 31.6892 30.7391 30.4146 30.5175 29.5003 30.088 C 28.5859 29.6447 27.9417 28.9312 27.5676 27.9476 C 27.2074 26.9639 27.0273 25.6409 27.0273 23.9784 Z M 33.4902 27.8437 C 34.3769 27.8437 35.0418 27.7328 35.4852 27.5112 C 35.9285 27.2895 36.2264 26.9016 36.3788 26.3474 C 36.5311 25.7794 36.6073 24.9897 36.6073 23.9784 C 36.6073 22.9809 36.5311 22.2051 36.3788 21.6509 C 36.2264 21.0968 35.9285 20.7089 35.4852 20.4872 C 35.0418 20.2517 34.3769 20.1339 33.4902 20.1339 C 32.6174 20.1339 31.9524 20.2517 31.4952 20.4872 C 31.0519 20.7089 30.7471 21.0968 30.5809 21.6509 C 30.4285 22.2051 30.3523 22.9809 30.3523 23.9784 C 30.3523 24.9897 30.4285 25.7794 30.5809 26.3474 C 30.7471 26.9016 31.0519 27.2895 31.4952 27.5112 C 31.9524 27.7328 32.6174 27.8437 33.4902 27.8437 Z" stroke-linecap="round" />
</g>
<g transform="matrix(1.04 0 0 1 498.47 542.08)"  >
<path style="stroke: none; stroke-width: 1; stroke-dasharray: none; stroke-linecap: butt; stroke-dashoffset: 0; stroke-linejoin: miter; stroke-miterlimit: 4; fill: rgb(50,71,213); fill-rule: nonzero; opacity: 1;" vector-effect="non-scaling-stroke"  transform=" translate(-48.45, -24.08)" d="M 54.1441 17.4116 L 54.1441 25.1629 C 54.1441 26.5206 53.9778 27.6081 53.6453 28.4255 C 53.3267 29.2429 52.7656 29.8386 51.9621 30.2127 C 51.1585 30.5729 50.0225 30.753 48.554 30.753 C 47.0301 30.753 45.8455 30.5729 45.0005 30.2127 C 44.1692 29.8386 43.5874 29.2429 43.2549 28.4255 C 42.9224 27.6081 42.7561 26.5206 42.7561 25.1629 L 42.7561 17.4116 L 46.0811 17.4116 L 46.0811 25.1006 C 46.0811 25.8071 46.1503 26.3613 46.2889 26.763 C 46.4274 27.1648 46.6768 27.4488 47.037 27.6151 C 47.3972 27.7675 47.9029 27.8437 48.554 27.8437 C 49.1636 27.8437 49.6277 27.7675 49.9463 27.6151 C 50.2788 27.4488 50.5074 27.1648 50.6321 26.763 C 50.7568 26.3613 50.8191 25.8071 50.8191 25.1006 L 50.8191 17.4116 L 54.1441 17.4116 Z" stroke-linecap="round" />
</g>
<g transform="matrix(1.04 0 0 1 514.06 541.98)"  >
<path style="stroke: none; stroke-width: 1; stroke-dasharray: none; stroke-linecap: butt; stroke-dashoffset: 0; stroke-linejoin: miter; stroke-miterlimit: 4; fill: rgb(50,71,213); fill-rule: nonzero; opacity: 1;" vector-effect="non-scaling-stroke"  transform=" translate(-63.42, -23.99)" d="M 56.9637 23.9784 C 56.9637 22.3021 57.1507 20.9721 57.5248 19.9885 C 57.9127 19.0048 58.5707 18.2983 59.4989 17.8688 C 60.441 17.4393 61.7502 17.2246 63.4265 17.2246 C 64.6872 17.2246 65.7332 17.3424 66.5645 17.5779 C 67.3957 17.8134 68.0537 18.1944 68.5386 18.7208 C 69.0235 19.2473 69.3629 19.9469 69.5569 20.8197 C 69.7647 21.6786 69.8686 22.7315 69.8686 23.9784 C 69.8686 25.2391 69.7647 26.3059 69.5569 27.1787 C 69.3629 28.0376 69.0235 28.7303 68.5386 29.2568 C 68.0537 29.7832 67.3957 30.1642 66.5645 30.3997 C 65.7332 30.6352 64.6872 30.753 63.4265 30.753 C 62.1658 30.753 61.1199 30.6352 60.2886 30.3997 C 59.4574 30.1642 58.7993 29.7832 58.3144 29.2568 C 57.8295 28.7303 57.4832 28.0376 57.2754 27.1787 C 57.0676 26.3059 56.9637 25.2391 56.9637 23.9784 Z M 63.4265 27.8437 C 64.3132 27.8437 64.9782 27.7328 65.4215 27.5112 C 65.8648 27.2895 66.1627 26.9016 66.3151 26.3474 C 66.4675 25.7794 66.5437 24.9897 66.5437 23.9784 C 66.5437 22.9809 66.4675 22.2051 66.3151 21.6509 C 66.1627 21.0968 65.8648 20.7089 65.4215 20.4872 C 64.9782 20.2517 64.3132 20.1339 63.4265 20.1339 C 62.5537 20.1339 61.8887 20.2517 61.4316 20.4872 C 60.9882 20.7089 60.6835 21.0968 60.5172 21.6509 C 60.3648 22.2051 60.2886 22.9809 60.2886 23.9784 C 60.2886 24.9897 60.3648 25.7794 60.5172 26.3474 C 60.6835 26.9016 60.9882 27.2895 61.4316 27.5112 C 61.8887 27.7328 62.5537 27.8437 63.4265 27.8437 Z" stroke-linecap="round" />
</g>
<g transform="matrix(1.04 0 0 1 528.27 541.99)"  >
<path style="stroke: none; stroke-width: 1; stroke-dasharray: none; stroke-linecap: butt; stroke-dashoffset: 0; stroke-linejoin: miter; stroke-miterlimit: 4; fill: rgb(50,71,213); fill-rule: nonzero; opacity: 1;" vector-effect="non-scaling-stroke"  transform=" translate(-77.06, -23.99)" d="M 75.394 30.5659 L 75.394 20.2171 L 71.6534 20.2171 L 71.6534 17.4116 L 82.4595 17.4116 L 82.4595 20.2171 L 78.7189 20.2171 L 78.7189 30.5659 L 75.394 30.5659 Z" stroke-linecap="round" />
</g>
<g transform="matrix(1.04 0 0 1 537.93 541.99)"  >
<path style="stroke: none; stroke-width: 1; stroke-dasharray: none; stroke-linecap: butt; stroke-dashoffset: 0; stroke-linejoin: miter; stroke-miterlimit: 4; fill: rgb(50,71,213); fill-rule: nonzero; opacity: 1;" vector-effect="non-scaling-stroke"  transform=" translate(-86.32, -23.99)" d="M 87.9821 30.5659 L 84.6571 30.5659 L 84.6571 17.4116 L 87.9821 17.4116 L 87.9821 30.5659 Z" stroke-linecap="round" />
</g>
<g transform="matrix(1.04 0 0 1 549.19 541.99)"  >
<path style="stroke: none; stroke-width: 1; stroke-dasharray: none; stroke-linecap: butt; stroke-dashoffset: 0; stroke-linejoin: miter; stroke-miterlimit: 4; fill: rgb(50,71,213); fill-rule: nonzero; opacity: 1;" vector-effect="non-scaling-stroke"  transform=" translate(-97.15, -23.99)" d="M 99.7438 17.4116 L 103.069 17.4116 L 103.069 30.5659 L 99.7646 30.5659 L 96.024 24.9967 C 95.7331 24.5533 95.4906 24.1793 95.2967 23.8745 C 95.1027 23.5697 94.9226 23.2649 94.7564 22.9601 C 94.5901 22.6554 94.4031 22.2952 94.1953 21.8795 L 94.133 21.9627 C 94.3269 22.6276 94.4447 23.2511 94.4862 23.8329 C 94.5278 24.4009 94.5486 24.9551 94.5486 25.4954 L 94.5486 30.5659 L 91.2236 30.5659 L 91.2236 17.4116 L 94.5278 17.4116 L 98.2684 22.9809 C 98.5593 23.4104 98.8017 23.7844 98.9957 24.1031 C 99.1896 24.4079 99.3697 24.7127 99.536 25.0174 C 99.7022 25.3222 99.8893 25.6824 100.097 26.0981 L 100.159 26.0149 C 100.021 25.4331 99.917 24.872 99.8477 24.3317 C 99.7784 23.7775 99.7438 23.2303 99.7438 22.69 L 99.7438 17.4116 Z" stroke-linecap="round" />
</g>
<g transform="matrix(1.04 0 0 1 564.44 541.98)"  >
<path style="stroke: none; stroke-width: 1; stroke-dasharray: none; stroke-linecap: butt; stroke-dashoffset: 0; stroke-linejoin: miter; stroke-miterlimit: 4; fill: rgb(50,71,213); fill-rule: nonzero; opacity: 1;" vector-effect="non-scaling-stroke"  transform=" translate(-111.77, -23.99)" d="M 114.73 26.6799 C 114.73 26.2227 114.751 25.8071 114.792 25.4331 L 114.751 25.3707 C 114.363 25.4261 113.94 25.4677 113.483 25.4954 C 113.026 25.5093 112.603 25.5093 112.215 25.4954 L 112.215 22.7939 L 117.639 22.7731 L 117.639 29.8386 C 117.002 30.1296 116.275 30.3581 115.457 30.5244 C 114.654 30.6768 113.628 30.753 112.382 30.753 C 110.719 30.753 109.417 30.5313 108.475 30.088 C 107.533 29.6308 106.868 28.9035 106.48 27.906 C 106.092 26.8947 105.898 25.5508 105.898 23.8745 C 105.898 22.5168 106.05 21.4016 106.355 20.5288 C 106.674 19.656 107.131 18.9841 107.727 18.513 C 108.336 18.0281 109.077 17.6956 109.95 17.5155 C 110.823 17.3216 111.82 17.2246 112.943 17.2246 C 113.608 17.2246 114.273 17.2523 114.938 17.3077 C 115.616 17.3631 116.288 17.4671 116.953 17.6194 L 116.953 20.3625 L 116.891 20.4041 C 116.309 20.2655 115.727 20.1686 115.145 20.1132 C 114.577 20.0577 114.002 20.03 113.421 20.03 C 112.576 20.03 111.834 20.1201 111.197 20.3002 C 110.574 20.4664 110.089 20.8197 109.742 21.36 C 109.396 21.9003 109.223 22.7385 109.223 23.8745 C 109.223 24.9967 109.313 25.8556 109.493 26.4513 C 109.687 27.0332 110.04 27.435 110.553 27.6566 C 111.079 27.8644 111.827 27.9683 112.797 27.9683 C 112.922 27.9683 113.116 27.9683 113.379 27.9683 C 113.642 27.9545 113.906 27.9406 114.169 27.9268 C 114.432 27.9129 114.619 27.8921 114.73 27.8644 L 114.73 26.6799 Z" stroke-linecap="round" />
</g>
<g transform="matrix(1.04 0 0 1 581.44 541.79)"  >
<path style="stroke: none; stroke-width: 1; stroke-dasharray: none; stroke-linecap: butt; stroke-dashoffset: 0; stroke-linejoin: miter; stroke-miterlimit: 4; fill: rgb(50,71,213); fill-rule: nonzero; opacity: 1;" vector-effect="non-scaling-stroke"  transform=" translate(-128.09, -23.79)" d="M 127.165 30.337 L 127.165 18.827 L 122.68 18.827 L 122.68 17.2427 L 133.503 17.2427 L 133.503 18.827 L 128.979 18.827 L 128.979 30.337 L 127.165 30.337 Z" stroke-linecap="round" />
</g>
<g transform="matrix(1.04 0 0 1 595.64 541.79)"  >
<path style="stroke: none; stroke-width: 1; stroke-dasharray: none; stroke-linecap: butt; stroke-dashoffset: 0; stroke-linejoin: miter; stroke-miterlimit: 4; fill: rgb(50,71,213); fill-rule: nonzero; opacity: 1;" vector-effect="non-scaling-stroke"  transform=" translate(-141.73, -23.79)" d="M 141.73 30.5661 C 140.368 30.5661 139.197 30.3179 138.217 29.8217 C 137.25 29.3254 136.499 28.5746 135.965 27.5693 C 135.443 26.564 135.182 25.3042 135.182 23.7899 C 135.182 22.2628 135.443 21.003 135.965 20.0105 C 136.499 19.0052 137.25 18.2544 138.217 17.7581 C 139.197 17.2618 140.368 17.0137 141.73 17.0137 C 143.091 17.0137 144.256 17.2618 145.223 17.7581 C 146.202 18.2544 146.953 19.0052 147.475 20.0105 C 148.009 21.003 148.277 22.2628 148.277 23.7899 C 148.277 25.3042 148.009 26.564 147.475 27.5693 C 146.953 28.5746 146.202 29.3254 145.223 29.8217 C 144.256 30.3179 143.091 30.5661 141.73 30.5661 Z M 141.73 29.0009 C 142.442 29.0009 143.085 28.9054 143.657 28.7146 C 144.243 28.5237 144.733 28.2246 145.127 27.8174 C 145.534 27.3975 145.846 26.8758 146.063 26.2522 C 146.279 25.616 146.387 24.8652 146.387 23.9998 L 146.387 23.599 C 146.387 22.721 146.279 21.9702 146.063 21.3466 C 145.846 20.7104 145.534 20.1886 145.127 19.7814 C 144.733 19.3615 144.243 19.0561 143.657 18.8652 C 143.085 18.6743 142.442 18.5789 141.73 18.5789 C 141.004 18.5789 140.355 18.6743 139.783 18.8652 C 139.21 19.0561 138.72 19.3615 138.313 19.7814 C 137.906 20.1886 137.594 20.7104 137.378 21.3466 C 137.174 21.9702 137.072 22.721 137.072 23.599 L 137.072 23.9998 C 137.072 24.8652 137.174 25.616 137.378 26.2522 C 137.594 26.8758 137.906 27.3975 138.313 27.8174 C 138.72 28.2246 139.21 28.5237 139.783 28.7146 C 140.355 28.9054 141.004 29.0009 141.73 29.0009 Z" stroke-linecap="round" />
</g>
<g transform="matrix(1.04 0 0 1 612.11 541.79)"  >
<path style="stroke: none; stroke-width: 1; stroke-dasharray: none; stroke-linecap: butt; stroke-dashoffset: 0; stroke-linejoin: miter; stroke-miterlimit: 4; fill: rgb(50,71,213); fill-rule: nonzero; opacity: 1;" vector-effect="non-scaling-stroke"  transform=" translate(-157.54, -23.79)" d="M 157.536 30.5661 C 156.174 30.5661 155.004 30.3179 154.024 29.8217 C 153.057 29.3254 152.306 28.5746 151.771 27.5693 C 151.25 26.564 150.989 25.3042 150.989 23.7899 C 150.989 22.2628 151.25 21.003 151.771 20.0105 C 152.306 19.0052 153.057 18.2544 154.024 17.7581 C 155.004 17.2618 156.174 17.0137 157.536 17.0137 C 158.898 17.0137 160.062 17.2618 161.029 17.7581 C 162.009 18.2544 162.76 19.0052 163.281 20.0105 C 163.816 21.003 164.083 22.2628 164.083 23.7899 C 164.083 25.3042 163.816 26.564 163.281 27.5693 C 162.76 28.5746 162.009 29.3254 161.029 29.8217 C 160.062 30.3179 158.898 30.5661 157.536 30.5661 Z M 157.536 29.0009 C 158.249 29.0009 158.891 28.9054 159.464 28.7146 C 160.049 28.5237 160.539 28.2246 160.934 27.8174 C 161.341 27.3975 161.653 26.8758 161.869 26.2522 C 162.085 25.616 162.193 24.8652 162.193 23.9998 L 162.193 23.599 C 162.193 22.721 162.085 21.9702 161.869 21.3466 C 161.653 20.7104 161.341 20.1886 160.934 19.7814 C 160.539 19.3615 160.049 19.0561 159.464 18.8652 C 158.891 18.6743 158.249 18.5789 157.536 18.5789 C 156.811 18.5789 156.162 18.6743 155.589 18.8652 C 155.016 19.0561 154.526 19.3615 154.119 19.7814 C 153.712 20.1886 153.4 20.7104 153.184 21.3466 C 152.98 21.9702 152.879 22.721 152.879 23.599 L 152.879 23.9998 C 152.879 24.8652 152.98 25.616 153.184 26.2522 C 153.4 26.8758 153.712 27.3975 154.119 27.8174 C 154.526 28.2246 155.016 28.5237 155.589 28.7146 C 156.162 28.9054 156.811 29.0009 157.536 29.0009 Z" stroke-linecap="round" />
</g>
<g transform="matrix(1.04 0 0 1 626.78 541.79)"  >
<path style="stroke: none; stroke-width: 1; stroke-dasharray: none; stroke-linecap: butt; stroke-dashoffset: 0; stroke-linejoin: miter; stroke-miterlimit: 4; fill: rgb(50,71,213); fill-rule: nonzero; opacity: 1;" vector-effect="non-scaling-stroke"  transform=" translate(-171.62, -23.79)" d="M 167.463 30.337 L 167.463 17.2427 L 169.277 17.2427 L 169.277 28.7527 L 175.786 28.7527 L 175.786 30.337 L 167.463 30.337 Z" stroke-linecap="round" />
</g>
<g transform="matrix(1.04 0 0 1 654.24 540)"  >
<circle style="stroke: none; stroke-width: 1; stroke-dasharray: none; stroke-linecap: butt; stroke-dashoffset: 0; stroke-linejoin: miter; stroke-miterlimit: 4; fill: rgb(255,255,255); fill-rule: nonzero; opacity: 1;" vector-effect="non-scaling-stroke"  cx="0" cy="0" r="18" />
</g>
<g transform="matrix(1 0 0 1 720.93 454.46)"  >
<path style="stroke: none; stroke-width: 1; stroke-dasharray: none; stroke-linecap: butt; stroke-dashoffset: 0; stroke-linejoin: miter; stroke-miterlimit: 4; fill: rgb(50,71,213); fill-rule: nonzero; opacity: 1;" vector-effect="non-scaling-stroke"  transform=" translate(-197.69, -22)" d="M 200.692 27.2902 C 200.785 27.1977 200.858 27.0878 200.908 26.9668 C 200.959 26.8459 200.984 26.7162 200.984 26.5852 C 200.984 26.4543 200.959 26.3246 200.908 26.2036 C 200.858 26.0826 200.785 25.9727 200.692 25.8802 L 196.812 22.0002 L 200.692 18.1202 C 200.879 17.9332 200.984 17.6796 200.984 17.4152 C 200.984 17.1508 200.879 16.8972 200.692 16.7102 C 200.505 16.5232 200.251 16.4182 199.987 16.4182 C 199.723 16.4182 199.469 16.5232 199.282 16.7102 L 194.692 21.3002 C 194.599 21.3927 194.526 21.5026 194.475 21.6236 C 194.425 21.7446 194.399 21.8743 194.399 22.0052 C 194.399 22.1362 194.425 22.2659 194.475 22.3868 C 194.526 22.5078 194.599 22.6177 194.692 22.7102 L 199.282 27.3002 C 199.662 27.6802 200.302 27.6802 200.692 27.2902 Z" stroke-linecap="round" />
</g>
</svg>